<?xml version="1.0" encoding="utf-8"?>
<!-- Generator: Adobe Illustrator 16.0.0, SVG Export Plug-In . SVG Version: 6.00 Build 0)  -->
<!DOCTYPE svg PUBLIC "-//W3C//DTD SVG 1.1//EN" "http://www.w3.org/Graphics/SVG/1.1/DTD/svg11.dtd">
<svg version="1.1" id="Layer_1" xmlns="http://www.w3.org/2000/svg" xmlns:xlink="http://www.w3.org/1999/xlink" x="0px" y="0px"
	 width="1417.32px" height="1417.32px" viewBox="0 0 1417.32 1417.32" enable-background="new 0 0 1417.32 1417.32"
	 xml:space="preserve">
<g>
	<g>
		<g>
			<g>
				<circle fill="#999999" cx="708.66" cy="708.66" r="708.66"/>
			</g>
		</g>
	</g>
	<path fill="#666666" d="M901.707,323.092c-134.784,53.705-222.701,108.775-235.996,232.86
		c-4.772,38.177-38.177,71.582-52.493,104.986c-52.493,128.848-66.81,262.467-171.796,367.453
		c-35.281,31.358-16.799,94.445-33.329,139.142l248.355,247.868c17.242,1.255,34.65,1.919,52.212,1.919
		c350.512,0,641.54-254.488,698.51-588.766L901.707,323.092z"/>
	<g>
		<polygon fill="#DDDDDD" points="1023.62,629.92 1023.62,629.92 944.88,708.66 472.44,708.66 393.7,629.92 472.44,472.439 
			944.88,472.439 		"/>
	</g>
	<g>
		<rect x="590.55" y="529.677" fill="#666666" width="236.221" height="23.86"/>
	</g>
	<g>
		<polygon fill="#444444" points="526.852,397.498 683.053,548.847 901.707,323.092 745.506,171.744 		"/>
	</g>
	<g>
		<path fill="#AAAAAA" d="M441.422,1181.1h534.477c26.356,0,47.722-21.364,47.722-47.721V629.92H393.7v503.459
			C393.7,1159.735,415.064,1181.1,441.422,1181.1z"/>
	</g>
	<g>
		<rect x="511.811" y="866.14" fill="#444444" width="393.699" height="157.48"/>
	</g>
</g>
</svg>
